<svg width="48" height="48" viewBox="0 0 48 48" fill="none" xmlns="http://www.w3.org/2000/svg">
<rect width="48" height="48" rx="24" fill="#2E48EB"/>
<path d="M21.3304 18.4165V22.2027M26.6879 18.4165V22.2027M11 18.4171V22.2035M36.0017 18.4171V22.2035M33.7501 34C33.7501 31.3861 31.6311 29.267 29.0172 29.267H18.2251C15.6112 29.267 13.4922 31.3861 13.4922 34M18.7294 26.6213H28.2723C31.2312 26.6213 33.6299 24.2226 33.6299 21.2637V19.3575C33.6299 16.3986 31.2312 14 28.2723 14H18.7294C15.7706 14 13.3719 16.3986 13.3719 19.3575V21.2637C13.3719 24.2226 15.7706 26.6213 18.7294 26.6213Z" stroke="white" stroke-linecap="round"/>
</svg>
